<svg xmlns="http://www.w3.org/2000/svg" xmlns:xlink="http://www.w3.org/1999/xlink" width="743.848" height="96" viewBox="0 0 743.848 96"><defs><clipPath id="a"><rect width="32.996" height="21.455" fill="#58a581"/></clipPath><clipPath id="b"><rect width="39.458" height="21.455" fill="#58a581"/></clipPath><clipPath id="c"><rect width="99.873" height="95.829" fill="#58a581"/></clipPath><clipPath id="d"><rect width="93.734" height="21.455" fill="#58a581"/></clipPath><clipPath id="e"><rect width="9.417" height="11.466" fill="none"/></clipPath><clipPath id="f"><rect width="63.37" height="21.456" fill="#58a581"/></clipPath></defs><g transform="translate(20560 1965)"><path d="M253.17.194V17.771l4.884-4-.009-.018L274.625.194Z" transform="translate(-20579.439 -1965.015)" fill="#f8efe6"/><path d="M261.515,17.761l-.313.249.009.018-8.042,6.583V96.539h21.456V7.024Z" transform="translate(-20579.439 -1965.539)" fill="#f8efe6"/><g transform="translate(-20493.131 -1890.622)" style="isolation:isolate"><g transform="translate(0 0)"><g clip-path="url(#a)"><path d="M105.426,80.573v21.446H90.036L72.43,80.564l17.356.009Z" transform="translate(-72.43 -80.564)" fill="#58a581"/></g></g></g><g transform="translate(-20042.842 -1890.624)" style="isolation:isolate"><g transform="translate(0 0)"><g clip-path="url(#b)"><path d="M599.629,102.017H560.17l1.985-3.545L572.2,80.562h15.418l10.026,17.91Z" transform="translate(-560.17 -80.562)" fill="#58a581"/></g></g></g><g transform="translate(-20447.461 -1965)" style="isolation:isolate"><g transform="translate(0 0)"><g clip-path="url(#c)"><path d="M221.772,0,183.523,31.4,166.942,44.969l-23.588,19.4V95.829H121.9V0h21.456V36.679L188.047,0Z" transform="translate(-121.899 0)" fill="#58a581"/></g></g></g><rect width="743.848" height="96" transform="translate(-20560 -1965)" fill="none"/><path d="M566.926.006,513.25,95.836h24.539l8.734-15.565,12.03-21.456,17.763-31.667,17.726,31.667L606.052,80.27l8.715,15.565h24.539L585.64.006Z" transform="translate(-20599.41 -1965)" fill="#f8efe6"/><path d="M512.451,0,484.827,37.224,457.2,0H430.538l43.6,58.677V95.832h21.455V58.679L539.116,0Z" transform="translate(-20593.059 -1965)" fill="#f8efe6"/><path d="M676.817,95.832H655.361V49.151h73.346a13.808,13.808,0,0,0,13.846-13.778,13.806,13.806,0,0,0-13.846-13.846H655.361V0l73.346.068a33.941,33.941,0,0,1,13.71,2.81A35.629,35.629,0,0,1,761.2,21.663a34.678,34.678,0,0,1,0,27.35A35.62,35.62,0,0,1,742.417,67.8a33.91,33.91,0,0,1-13.71,2.811h-51.89Z" transform="translate(-20610.322 -1965)" fill="#f8efe6"/><rect width="21.456" height="95.829" transform="translate(-19837.607 -1964.997)" fill="#f8efe6"/><path d="M17.6,21.455H0V0Z" transform="translate(-20560 -1965)" fill="#f8efe6"/><g transform="translate(-20553.869 -1965)" style="isolation:isolate"><g transform="translate(0 0)"><g clip-path="url(#d)"><path d="M100.374,0V21.455L46.43,21.446H24.236L6.64,0Z" transform="translate(-6.64 0)" fill="#58a581"/></g></g></g><path d="M78.344,102.019H0V80.564H60.738L78.326,102Z" transform="translate(-20560 -1971.186)" fill="#f8efe6"/><path d="M47.98,61.93H0V40.474H30.365Z" transform="translate(-20560 -1968.108)" fill="#f8efe6"/><g transform="translate(-20529.635 -1927.634)" opacity="0.8" style="isolation:isolate"><g transform="translate(0 0)"><g clip-path="url(#e)"><path d="M32.9,40.474,42.307,51.94,32.89,40.474Z" transform="translate(-32.89 -40.474)" fill="#58a581"/></g></g></g><g transform="translate(-20523.506 -1927.634)" style="isolation:isolate"><g transform="translate(0 0)"><g clip-path="url(#f)"><path d="M102.9,40.474V61.929H57.136L39.53,40.474Z" transform="translate(-39.53 -40.474)" fill="#58a581"/></g></g></g><path d="M234.466,98.774H208.081l-24.2-33.125L173.82,51.865l.582-.48,15.99-13.091,7.81,10.719Z" transform="translate(-20573.346 -1967.94)" fill="#f8efe6"/><path d="M311.524,95.834H290.068V49.153h73.346A13.808,13.808,0,0,0,377.26,35.375a13.806,13.806,0,0,0-13.846-13.846H290.068V0l73.346.068a33.945,33.945,0,0,1,13.711,2.81,35.627,35.627,0,0,1,18.781,18.782,34.667,34.667,0,0,1,0,27.35A35.618,35.618,0,0,1,377.124,67.8a33.915,33.915,0,0,1-13.711,2.811H311.524Z" transform="translate(-20582.273 -1965)" fill="#f8efe6"/><rect width="743.848" height="96" transform="translate(-20560 -1965)" fill="none"/><rect width="743.848" height="96" transform="translate(-20560 -1965)" fill="none"/></g></svg>